<?xml version="1.0" encoding="UTF-8"?>
<!-- Generator: Adobe Illustrator 20.0.0, SVG Export Plug-In . SVG Version: 6.00 Build 0)  -->
<svg version="1.1" id="Ebene_1" xmlns="http://www.w3.org/2000/svg" xmlns:xlink="http://www.w3.org/1999/xlink" x="0px" y="0px" viewBox="0 0 203 141" style="enable-background:new 0 0 203 141;" xml:space="preserve">
<style type="text/css">
	.st0{fill:#193E73;}
	.st1{fill:#E30A13;}
</style>
<g>
	<path class="st0" d="M59.8,131.9h2.9v-7.8c0-0.5,0.1-0.9,0.2-1.4c0.2-0.4,0.4-0.8,0.6-1.1c0.3-0.3,0.6-0.6,1-0.7   c0.4-0.2,0.8-0.3,1.3-0.3c0.9,0,1.5,0.2,1.9,0.7c0.4,0.5,0.6,1.2,0.7,2.3v8.3h2.9v-9.1c0-1.5-0.4-2.6-1.3-3.4   c-0.8-0.8-2-1.1-3.4-1.1c-0.9,0-1.7,0.2-2.4,0.6c-0.7,0.4-1.3,1-1.7,1.7l-0.1-0.1v-1.9h-2.8v13.3H59.8z"/>
	<polygon class="st0" points="53.7,131.9 56.7,131.9 56.7,118.7 53.7,118.7  "/>
	<path class="st0" d="M83.9,118.7v1.8h-0.1c-0.4-0.8-0.9-1.3-1.6-1.7s-1.5-0.5-2.3-0.5c-0.9,0-1.8,0.2-2.5,0.5   c-0.7,0.4-1.4,0.8-1.9,1.4c-0.5,0.6-0.9,1.3-1.2,2.1c-0.3,0.8-0.4,1.7-0.4,2.5c0,1,0.1,1.9,0.3,2.7s0.6,1.6,1.1,2.2   c0.5,0.6,1.1,1.1,1.8,1.5c0.7,0.4,1.6,0.6,2.7,0.6c0.8,0,1.6-0.2,2.3-0.6c0.7-0.4,1.3-1,1.7-1.7h0.1v2c0,1.1-0.3,1.9-0.8,2.5   s-1.4,0.9-2.6,0.9c-0.4,0-0.7,0-1.1-0.1c-0.3,0-0.7-0.1-0.9-0.3c-0.3-0.1-0.5-0.3-0.7-0.6s-0.3-0.6-0.4-1h-2.9   c0.1,0.8,0.3,1.4,0.7,1.9s0.8,1,1.4,1.3c0.6,0.3,1.2,0.6,1.8,0.7c0.7,0.1,1.3,0.2,2,0.2c2.1,0,3.7-0.5,4.8-1.5s1.7-2.5,1.7-4.5   v-12.6h-3V118.7z M83.7,126.7c-0.1,0.6-0.3,1.1-0.6,1.5c-0.3,0.4-0.6,0.8-1.1,1.1s-1,0.4-1.7,0.4c-0.6,0-1.1-0.1-1.6-0.4   c-0.4-0.3-0.8-0.6-1.1-1s-0.5-0.9-0.6-1.4c-0.1-0.5-0.2-1.1-0.2-1.6s0.1-1.1,0.2-1.7c0.1-0.6,0.3-1,0.6-1.5   c0.3-0.4,0.6-0.8,1.1-1.1c0.4-0.3,1-0.4,1.6-0.4c0.6,0,1.2,0.1,1.6,0.4c0.5,0.2,0.8,0.6,1.1,1c0.3,0.4,0.5,0.9,0.6,1.4   c0.1,0.5,0.2,1.1,0.2,1.6C83.9,125.6,83.8,126.1,83.7,126.7L83.7,126.7z"/>
	<path class="st0" d="M47.6,120.4L47.6,120.4c-0.3-0.4-0.6-0.7-0.9-0.9c-0.3-0.3-0.7-0.5-1.1-0.7s-0.8-0.3-1.2-0.4   c-0.4-0.1-0.8-0.1-1.3-0.1c-0.7,0-1.4,0.1-2.1,0.4c-0.7,0.3-1.3,0.7-1.8,1.2c-0.5,0.6-1,1.3-1.3,2.2s-0.5,1.9-0.5,3.1   c0,1,0.1,1.9,0.4,2.8c0.3,0.9,0.6,1.6,1.2,2.2c0.5,0.6,1.2,1.1,1.9,1.5c0.8,0.4,1.7,0.6,2.7,0.6c0.8,0,1.6-0.2,2.4-0.5   s1.3-0.9,1.7-1.7h0.1v1.8h2.8V113h-2.9L47.6,120.4L47.6,120.4z M47.5,127c-0.1,0.6-0.4,1.1-0.7,1.5c-0.3,0.4-0.7,0.8-1.2,1.1   s-1,0.4-1.7,0.4c-0.6,0-1.2-0.1-1.6-0.4c-0.5-0.3-0.8-0.6-1.1-1c-0.3-0.4-0.5-0.9-0.7-1.5c-0.1-0.5-0.2-1.1-0.2-1.7   c0-0.6,0.1-1.2,0.2-1.8s0.3-1.1,0.6-1.5c0.3-0.5,0.7-0.8,1.2-1.1s1-0.4,1.7-0.4c1.1,0,2,0.4,2.7,1.2s1,2,1,3.4   C47.7,125.9,47.6,126.4,47.5,127L47.5,127z"/>
	<polygon class="st0" points="31.9,131.9 34.8,131.9 34.8,118.7 31.9,118.7  "/>
	<path class="st0" d="M8.4,125.8c0,1.1,0.2,2.1,0.6,2.9c0.4,0.8,1,1.5,1.6,2c0.7,0.5,1.5,0.9,2.4,1.2s1.9,0.4,2.9,0.4   c0.9,0,1.8-0.1,2.7-0.3s1.6-0.5,2.3-1s1.2-1.1,1.7-1.8c0.4-0.7,0.6-1.6,0.6-2.6c0-0.5-0.1-1-0.2-1.4c-0.1-0.5-0.4-0.9-0.7-1.3   c-0.3-0.4-0.7-0.8-1.1-1.1c-0.4-0.3-1-0.6-1.6-0.8c-0.2-0.1-0.6-0.2-1.2-0.3c-0.6-0.1-1.1-0.3-1.7-0.5c-0.6-0.2-1.1-0.3-1.6-0.4   c-0.5-0.1-0.7-0.2-0.8-0.2c-0.7-0.2-1.2-0.5-1.6-0.8c-0.4-0.4-0.6-0.9-0.6-1.5c0-0.5,0.1-0.8,0.3-1.2c0.2-0.3,0.5-0.6,0.8-0.7   c0.3-0.2,0.7-0.3,1.1-0.4c0.4-0.1,0.8-0.1,1.2-0.1c1.1,0,2,0.2,2.7,0.7s1.1,1.3,1.2,2.5h3.2c0-1-0.2-1.8-0.6-2.5   c-0.4-0.7-0.9-1.3-1.5-1.8s-1.4-0.9-2.2-1.1c-0.8-0.2-1.7-0.4-2.7-0.4c-0.8,0-1.6,0.1-2.4,0.3c-0.8,0.2-1.5,0.5-2.2,1   c-0.6,0.4-1.1,1-1.5,1.7s-0.6,1.5-0.6,2.4c0,0.5,0.1,0.9,0.2,1.4c0.1,0.5,0.3,0.9,0.7,1.3c0.3,0.4,0.7,0.8,1.2,1.1s1.2,0.6,2,0.8   c1.3,0.3,2.3,0.6,3.2,0.8s1.6,0.4,2.3,0.7c0.4,0.1,0.7,0.4,1,0.7s0.5,0.9,0.5,1.6c0,0.3-0.1,0.7-0.2,1c-0.1,0.3-0.4,0.6-0.7,0.9   c-0.3,0.3-0.7,0.5-1.2,0.6c-0.5,0.2-1.1,0.2-1.8,0.2s-1.3-0.1-1.8-0.2c-0.6-0.1-1-0.4-1.5-0.7c-0.4-0.3-0.8-0.7-1-1.2   s-0.4-1.1-0.4-1.8L8.4,125.8L8.4,125.8z"/>
	<path class="st0" d="M33.3,116.9c0.9,0,1.6-0.7,1.6-1.6c0-0.9-0.7-1.6-1.6-1.6s-1.6,0.7-1.6,1.6C31.6,116.2,32.4,116.9,33.3,116.9"/>
	<path class="st0" d="M55.2,116.9c0.9,0,1.7-0.7,1.7-1.6c0-0.9-0.7-1.6-1.7-1.6c-0.9,0-1.6,0.7-1.6,1.6S54.3,116.9,55.2,116.9"/>
	<path class="st0" d="M174,131.9h2.9v-7.8c0-0.5,0.1-0.9,0.2-1.4c0.2-0.4,0.4-0.8,0.6-1.1c0.3-0.3,0.6-0.6,1-0.7   c0.4-0.2,0.8-0.3,1.3-0.3c0.9,0,1.5,0.2,1.9,0.7s0.6,1.2,0.7,2.3v8.3h3v-9.1c0-1.5-0.4-2.6-1.3-3.4c-0.8-0.8-2-1.1-3.5-1.1   c-0.9,0-1.7,0.2-2.4,0.6c-0.7,0.4-1.3,1-1.8,1.7l-0.1-0.1v-2h-2.8v13.4H174z"/>
	<path class="st0" d="M171.8,122.5c-0.3-0.9-0.7-1.6-1.3-2.2c-0.6-0.6-1.3-1.1-2.1-1.5c-0.8-0.3-1.8-0.5-2.9-0.5   c-1.1,0-2,0.2-2.9,0.5c-0.8,0.4-1.5,0.8-2.1,1.5c-0.6,0.6-1,1.4-1.3,2.2c-0.3,0.9-0.5,1.8-0.5,2.8s0.2,2,0.5,2.8   c0.3,0.9,0.7,1.6,1.3,2.2c0.6,0.6,1.3,1.1,2.1,1.4c0.8,0.4,1.8,0.5,2.9,0.5c1.1,0,2-0.2,2.9-0.5c0.8-0.4,1.5-0.8,2.1-1.4   c0.6-0.6,1-1.3,1.3-2.2s0.5-1.8,0.5-2.8C172.2,124.3,172.1,123.4,171.8,122.5L171.8,122.5z M169,127c-0.1,0.6-0.4,1.1-0.7,1.5   s-0.7,0.8-1.2,1.1s-1.1,0.4-1.7,0.4c-0.7,0-1.2-0.1-1.7-0.4c-0.5-0.3-0.9-0.6-1.2-1.1c-0.3-0.4-0.5-0.9-0.7-1.5   c-0.1-0.6-0.2-1.1-0.2-1.7c0-0.6,0.1-1.1,0.2-1.7c0.1-0.6,0.4-1.1,0.7-1.5s0.7-0.8,1.2-1.1s1.1-0.4,1.7-0.4c0.7,0,1.2,0.1,1.7,0.4   c0.5,0.3,0.9,0.6,1.2,1.1c0.3,0.4,0.5,0.9,0.7,1.5c0.1,0.6,0.2,1.1,0.2,1.7C169.3,125.9,169.2,126.5,169,127L169,127z"/>
	<polygon class="st0" points="153.8,131.9 156.8,131.9 156.8,118.7 153.8,118.7  "/>
	<path class="st0" d="M143.8,120.9h2.2v7.8c0,0.5,0.1,1,0.2,1.5c0.1,0.4,0.3,0.8,0.5,1.1c0.3,0.3,0.6,0.5,1.1,0.6s1.1,0.2,1.9,0.2   c0.3,0,0.6,0,1-0.1c0.3,0,0.6-0.1,1-0.1v-2.3c-0.2,0.1-0.4,0.1-0.6,0.1c-0.2,0-0.4,0-0.6,0c-0.3,0-0.6,0-0.8-0.1s-0.3-0.2-0.4-0.3   c-0.1-0.2-0.2-0.3-0.2-0.6c0-0.2,0-0.5,0-0.8v-7.1h2.7v-2.2h-2.7v-4.9h-2.9v4.9H144v2.3H143.8z"/>
	<path class="st0" d="M142,118.7h-2.9v7.7c0,0.5-0.1,1-0.2,1.4c-0.1,0.4-0.3,0.8-0.6,1.1s-0.6,0.6-1,0.8s-0.9,0.3-1.6,0.3   c-0.8,0-1.4-0.2-1.9-0.7s-0.7-1.3-0.7-2.5v-8.1h-3v8.4c0,1.7,0.4,3.1,1.2,3.9c0.8,0.9,2.1,1.3,3.8,1.3c0.7,0,1.5-0.2,2.2-0.6   c0.7-0.4,1.3-0.9,1.6-1.6h0.1v1.8h2.9L142,118.7L142,118.7z"/>
	<polygon class="st0" points="124.7,131.9 127.7,131.9 127.7,113.1 124.7,114.8  "/>
	<polygon class="st0" points="26.2,131.9 29.1,131.9 29.1,113.1 26.2,114.8  "/>
	<path class="st0" d="M122.4,122.5c-0.3-0.9-0.7-1.6-1.3-2.2c-0.6-0.6-1.3-1.1-2.1-1.5c-0.8-0.3-1.8-0.5-2.9-0.5   c-1.1,0-2,0.2-2.9,0.5c-0.8,0.4-1.5,0.8-2.1,1.5c-0.6,0.6-1,1.4-1.3,2.2c-0.3,0.9-0.5,1.8-0.5,2.8s0.1,2,0.5,2.8   c0.3,0.9,0.7,1.6,1.3,2.2c0.6,0.6,1.3,1.1,2.1,1.4c0.8,0.4,1.8,0.5,2.9,0.5c1.1,0,2-0.2,2.9-0.5c0.8-0.4,1.5-0.8,2.1-1.4   c0.6-0.6,1-1.3,1.3-2.2s0.5-1.8,0.5-2.8C122.8,124.3,122.7,123.4,122.4,122.5L122.4,122.5z M119.7,127c-0.1,0.6-0.4,1.1-0.7,1.5   s-0.7,0.8-1.2,1.1s-1.1,0.4-1.7,0.4c-0.7,0-1.2-0.1-1.7-0.4c-0.5-0.3-0.9-0.6-1.2-1.1c-0.3-0.4-0.5-0.9-0.7-1.5   c-0.1-0.6-0.2-1.1-0.2-1.7c0-0.6,0.1-1.1,0.2-1.7c0.1-0.6,0.4-1.1,0.7-1.5s0.7-0.8,1.2-1.1s1.1-0.4,1.7-0.4c0.7,0,1.2,0.1,1.7,0.4   c0.5,0.3,0.9,0.6,1.2,1.1c0.3,0.4,0.5,0.9,0.7,1.5c0.1,0.6,0.2,1.1,0.2,1.7C119.9,125.9,119.8,126.5,119.7,127L119.7,127z"/>
	<path class="st0" d="M93.1,125.8c0,1.1,0.2,2.1,0.6,2.9c0.4,0.8,1,1.5,1.7,2s1.5,0.9,2.4,1.2s1.9,0.4,3,0.4c0.9,0,1.8-0.1,2.7-0.3   s1.7-0.6,2.4-1c0.7-0.5,1.2-1.1,1.7-1.8c0.4-0.7,0.6-1.6,0.6-2.6c0-0.5-0.1-1-0.2-1.4c-0.1-0.5-0.4-0.9-0.7-1.3   c-0.3-0.4-0.7-0.8-1.1-1.1c-0.4-0.3-1-0.6-1.6-0.8c-0.2-0.1-0.6-0.2-1.2-0.3c-0.6-0.1-1.1-0.3-1.7-0.4c-0.6-0.2-1.1-0.3-1.6-0.4   c-0.5-0.1-0.7-0.2-0.8-0.2c-0.7-0.2-1.2-0.5-1.6-0.8c-0.4-0.4-0.6-0.9-0.6-1.5c0-0.5,0.1-0.8,0.3-1.2c0.2-0.3,0.5-0.6,0.8-0.7   c0.3-0.2,0.7-0.3,1.1-0.4c0.4-0.1,0.8-0.1,1.2-0.1c1.1,0,2,0.2,2.8,0.7c0.7,0.5,1.1,1.3,1.2,2.5h3.2c0-1-0.2-1.8-0.6-2.5   c-0.4-0.7-0.9-1.3-1.5-1.8s-1.4-0.9-2.3-1.1c-0.9-0.2-1.8-0.4-2.7-0.4c-0.8,0-1.6,0.1-2.5,0.3c-0.8,0.2-1.5,0.5-2.2,1   c-0.6,0.4-1.2,1-1.5,1.7c-0.4,0.7-0.6,1.5-0.6,2.4c0,0.5,0.1,0.9,0.2,1.4c0.1,0.5,0.4,0.9,0.7,1.3c0.3,0.4,0.7,0.8,1.3,1.1   c0.5,0.3,1.2,0.6,2,0.8c1.3,0.3,2.4,0.6,3.2,0.8c0.9,0.2,1.6,0.4,2.3,0.7c0.4,0.1,0.7,0.4,1,0.7s0.5,0.9,0.5,1.6   c0,0.3-0.1,0.7-0.2,1c-0.1,0.3-0.4,0.6-0.7,0.9c-0.3,0.3-0.7,0.5-1.2,0.6c-0.5,0.2-1.1,0.2-1.8,0.2s-1.3-0.1-1.8-0.2   c-0.6-0.1-1.1-0.4-1.5-0.7s-0.8-0.7-1-1.2s-0.4-1.1-0.4-1.8h-3.3V125.8z"/>
	<path class="st0" d="M155.2,117c0.9,0,1.7-0.7,1.7-1.7c0-0.9-0.7-1.6-1.7-1.6c-0.9,0-1.7,0.7-1.7,1.6S154.2,117,155.2,117"/>
	<path class="st0" d="M187.4,127.7c0,0.8,0.2,1.5,0.5,2c0.3,0.6,0.7,1.1,1.2,1.4c0.5,0.4,1.1,0.7,1.8,0.9s1.5,0.3,2.3,0.3   c0.7,0,1.4-0.1,2.1-0.2c0.7-0.2,1.3-0.4,1.9-0.7c0.6-0.3,1-0.8,1.4-1.3s0.5-1.2,0.5-2c0-0.6-0.1-1.2-0.4-1.6   c-0.2-0.4-0.6-0.8-1-1.1s-0.9-0.5-1.4-0.7s-1-0.3-1.6-0.4c-0.5-0.1-1.1-0.2-1.6-0.3s-1-0.2-1.4-0.4c-0.4-0.1-0.7-0.3-1-0.6   c-0.2-0.2-0.4-0.5-0.4-0.9c0-0.3,0.1-0.5,0.3-0.7s0.4-0.3,0.6-0.4c0.2-0.1,0.5-0.2,0.8-0.2s0.5-0.1,0.7-0.1c0.6,0,1.2,0.1,1.7,0.4   c0.5,0.2,0.8,0.7,1,1.4h3c-0.1-0.7-0.3-1.4-0.6-1.9s-0.8-0.9-1.3-1.3c-0.5-0.3-1.1-0.6-1.7-0.7c-0.6-0.1-1.3-0.2-2-0.2   c-0.6,0-1.2,0.1-1.9,0.2c-0.7,0.1-1.3,0.3-1.8,0.6s-1,0.7-1.3,1.2c-0.4,0.5-0.5,1.1-0.5,1.8s0.1,1.2,0.4,1.7c0.2,0.5,0.6,0.8,1,1.1   s0.9,0.5,1.4,0.7s1,0.3,1.6,0.4c0.5,0.1,1.1,0.2,1.6,0.3s1,0.2,1.4,0.4c0.4,0.1,0.7,0.3,1,0.6c0.3,0.2,0.4,0.5,0.4,0.9   s-0.1,0.7-0.3,0.9s-0.4,0.4-0.8,0.5c-0.3,0.1-0.6,0.2-1,0.2c-0.3,0-0.7,0.1-0.9,0.1c-0.8,0-1.5-0.2-2-0.5c-0.6-0.3-0.9-0.9-1-1.8   L187.4,127.7L187.4,127.7z"/>
	<polygon class="st0" points="136.9,70.7 145.9,70.7 151.1,95.1 156.5,70.7 165.8,70.7 155.9,104.6 146.7,104.6 141.3,79.9    135.9,104.6 126.6,104.6 117,70.7 126.6,70.7 131.9,95  "/>
	<polygon class="st0" points="70.6,58.8 70.6,76.3 52.5,76.3 52.5,58.8 42.9,58.8 42.9,97.8 52.5,104.6 52.5,84.2 70.6,84.2    70.6,104.6 80.2,104.6 80.2,58.8  "/>
	<path class="st1" d="M63.9,2.2L32.1,18.1v20.4c0,0,0,0,0.1,0c6.1,0,11.1,5,11.1,11.1l17.2-10.2L63.9,2.2L63.9,2.2z"/>
	<polygon class="st0" points="4.8,70.1 33.5,91.1 33.7,54.5 1.4,34.2  "/>
	<path class="st0" d="M114.6,100.2c0-0.1,0-3.2,0-4.3V80.4c0-4.1-1.5-6.8-4.4-8.3s-6.3-2.2-10-2.2c-5.8,0-9.9,1.5-12.2,4.5   c-1.5,1.9-2.3,4.3-2.5,7.3h8.6c0.2-1.3,0.6-2.3,1.3-3.1c0.9-1,2.4-1.5,4.6-1.5c1.9,0,3.4,0.3,4.3,0.8c1,0.5,1.5,1.5,1.5,2.9   c0,1.1-0.6,2-1.9,2.5c-0.7,0.3-1.9,0.6-3.6,0.8l-3.1,0.4c-3.5,0.4-6.1,1.2-7.9,2.2c-3.3,1.9-4.9,4.9-4.9,9c0,3.2,1,5.7,3,7.4   c2,1.7,4.6,2.6,7.7,2.6c2.4,0,4.6-0.5,6.6-1.6c1.6-0.9,3.1-2.1,4.3-3.4c0.1,0.8,0.1,1.5,0.2,2.1c0.1,0.6,0.3,1.2,0.6,1.9h9.7v-0.1   C115.3,103.5,114.6,101.9,114.6,100.2L114.6,100.2z M105.6,91.4c-0.1,3-0.9,5-2.6,6.1c-1.6,1.1-3.4,1.7-5.4,1.7   c-1.2,0-2.3-0.3-3.1-1c-0.9-0.7-1.3-1.8-1.3-3.3c0-1.7,0.7-2.9,2.1-3.8c0.8-0.5,2.2-0.9,4.1-1.2l2-0.4c1-0.2,1.8-0.4,2.4-0.6   c0.6-0.2,1.2-0.5,1.7-0.9v3.4H105.6z"/>
	<path class="st0" d="M196.5,100.2c0-0.1,0-3.2,0-4.3V80.4c0-4.1-1.5-6.8-4.4-8.3s-6.3-2.2-10-2.2c-5.8,0-9.9,1.5-12.2,4.5   c-1.5,1.9-2.3,4.3-2.5,7.3h8.6c0.2-1.3,0.6-2.3,1.3-3.1c0.9-1,2.4-1.5,4.6-1.5c1.9,0,3.4,0.3,4.3,0.8c1,0.5,1.5,1.5,1.5,2.9   c0,1.1-0.6,2-1.9,2.5c-0.7,0.3-1.9,0.6-3.6,0.8l-3.1,0.4c-3.5,0.4-6.1,1.2-7.9,2.2c-3.3,1.9-4.9,4.9-4.9,9c0,3.2,1,5.7,3,7.4   s4.6,2.6,7.7,2.6c2.4,0,4.6-0.5,6.6-1.6c1.6-0.9,3.1-2.1,4.3-3.4c0.1,0.8,0.1,1.5,0.3,2.1c0.1,0.6,0.3,1.2,0.6,1.9h9.7v-0.1   C197.3,103.5,196.5,101.9,196.5,100.2L196.5,100.2z M187.6,91.4c-0.1,3-0.9,5-2.6,6.1c-1.6,1.1-3.5,1.7-5.4,1.7   c-1.2,0-2.3-0.3-3.1-1c-0.9-0.7-1.3-1.8-1.3-3.3c0-1.7,0.7-2.9,2.1-3.8c0.8-0.5,2.2-0.9,4.1-1.2l2-0.4c1-0.2,1.8-0.4,2.4-0.6   c0.6-0.2,1.2-0.5,1.7-0.9v3.4H187.6z"/>
</g>
</svg>